<svg width="14" height="16" viewBox="0 0 14 16" fill="none" xmlns="http://www.w3.org/2000/svg">
<path d="M5.5 14C5.22813 14 5 14.2281 5 14.5V16H6V14.5C6 14.2281 5.775 14 5.5 14ZM8.5 14C8.22656 14 8 14.2266 8 14.5C8 14.7734 8.22656 15 8.5 15C8.77344 15 9 14.7734 9 14.5C9 14.2266 8.775 14 8.5 14ZM5.125 5.375L5.38141 6.14437C5.41937 6.25828 5.58063 6.25828 5.61859 6.14437L5.875 5.375L6.64437 5.11866C6.75831 5.08056 6.75831 4.91944 6.64437 4.88134L5.875 4.625L5.61875 3.85625C5.58078 3.74225 5.41953 3.74225 5.38156 3.85625L5.125 4.625L4.35625 4.88125C4.24231 4.91934 4.24231 5.08047 4.35625 5.11856L5.125 5.375ZM10.5031 9.85625C9.5 10.5813 8.28438 11 7 11C5.71562 11 4.49906 10.5803 3.49688 9.85656C1.45469 10.6313 0 12.6031 0 14.9156C0 15.5156 0.485 16 1.08312 16H4V14C4 13.4453 4.44531 13 5 13H9C9.55469 13 10 13.4453 10 14V16H12.9169C13.5156 16 14 15.5156 14 14.9156C14 12.6031 12.5469 10.6312 10.5031 9.85625ZM2 7H2.42188C3.19688 8.76562 4.95 10 7 10C9.05 10 10.8062 8.76562 11.5781 7H12C12.2734 7 12.5 6.77344 12.5 6.5V3.5C12.5 3.22813 12.275 3 12 3H11.5781C10.8062 1.23438 9.05 0 7 0C4.95 0 3.19688 1.23438 2.42188 3H2C1.72656 3 1.5 3.22813 1.5 3.5V6.5C1.5 6.775 1.72656 7 2 7ZM3.25 4.25C3.25 3.55938 3.92188 3 4.75 3H9.25C10.0781 3 10.75 3.55875 10.75 4.25V5C10.75 6.65625 9.40625 8 7.75 8H6.25C4.59375 8 3.25 6.65625 3.25 5V4.25Z" fill="white"/>
</svg>
